<svg xmlns="http://www.w3.org/2000/svg" width="24" height="24" viewBox="0 0 24 24" fill="none">
<style>
.s{stroke:#a371f7;stroke-width:1.5;stroke-linecap:round;stroke-linejoin:round;fill:none}
.f{fill:#a371f7}
.fs{fill:#c9a0ff}
@media(prefers-color-scheme:light){
.s{stroke:#6e40c9}
.f{fill:#6e40c9}
.fs{fill:#8250df}
}
</style>

<g class="s">
  <path d="M12 2.5 C9 2.5, 7 4, 7 6 C5 6, 3.5 7.5, 3.5 10
    C2.5 11, 2 12.5, 2.5 14 C2 15.5, 3 17, 4.5 17.5
    C5 19.5, 7 21, 9.5 21 C10.5 21.5, 11.5 21.5, 12 21"/>
  <path d="M12 2.5 C15 2.5, 17 4, 17 6 C19 6, 20.5 7.5, 20.5 10
    C21.5 11, 22 12.5, 21.5 14 C22 15.5, 21 17, 19.5 17.5
    C19 19.5, 17 21, 14.5 21 C13.5 21.5, 12.5 21.5, 12 21"/>
  <line x1="12" y1="2.5" x2="12" y2="21"/>
  <path d="M12 7 C10 7, 8 8, 7.5 10" style="fill:none"/>
  <path d="M12 7 C14 7, 16 8, 16.5 10" style="fill:none"/>
  <path d="M12 13 C10 13, 8 14.5, 7 16" style="fill:none"/>
  <path d="M12 13 C14 13, 16 14.5, 17 16" style="fill:none"/>
</g>

</svg>