<svg xmlns="http://www.w3.org/2000/svg" width="24" height="24" viewBox="0 0 24 24" fill="none">
<style>
.s{stroke:#a371f7;stroke-width:1.5;stroke-linecap:round;stroke-linejoin:round;fill:none}
.f{fill:#a371f7}
.fs{fill:#c9a0ff}
@media(prefers-color-scheme:light){
.s{stroke:#6e40c9}
.f{fill:#6e40c9}
.fs{fill:#8250df}
}
</style>

<g class="s">
  <path d="M10 3 C7 3, 4.5 5, 4.5 8 C3 8.5, 2 10, 2.5 11.5
    C2 13, 3 14.5, 4.5 15 C5 17, 7 18.5, 10 18.5 L10 18.5"/>
  <path d="M10 3 C13 3, 14.5 5, 14.5 7"/>
  <line x1="10" y1="3" x2="10" y2="18.5"/>
  <path d="M10 8 C8 8, 6 9.5, 5.5 11" style="fill:none"/>
  <path d="M10 13 C8 13, 6.5 14, 5.5 15" style="fill:none"/>
</g>
<g class="s" transform="translate(17,15)">
  <circle cx="0" cy="0" r="3.5"/>
  <circle cx="0" cy="0" r="1.2"/>
  <line x1="0" y1="-4.5" x2="0" y2="-2.5"/>
  <line x1="0" y1="2.5" x2="0" y2="4.5"/>
  <line x1="-4.5" y1="0" x2="-2.5" y2="0"/>
  <line x1="2.5" y1="0" x2="4.5" y2="0"/>
</g>

</svg>