<svg xmlns="http://www.w3.org/2000/svg" width="24" height="24" viewBox="0 0 24 24" fill="none">
<style>
.s{stroke:#a371f7;stroke-width:1.5;stroke-linecap:round;stroke-linejoin:round;fill:none}
.f{fill:#a371f7}
.fs{fill:#c9a0ff}
@media(prefers-color-scheme:light){
.s{stroke:#6e40c9}
.f{fill:#6e40c9}
.fs{fill:#8250df}
}
</style>

<g class="s">
  <path d="M2 14 L6 9 L9.5 12 L12 10"/>
  <path d="M22 14 L18 9 L14.5 12 L12 10"/>
  <path d="M12 10 L14 12 L12 14 L10 12 Z"/>
  <path d="M6 9 C6 9, 4 7, 5 5 L8 3"/>
  <path d="M18 9 C18 9, 20 7, 19 5 L16 3"/>
  <circle cx="5" cy="16" r="1.5"/>
  <circle cx="19" cy="16" r="1.5"/>
  <line x1="5" y1="17.5" x2="5" y2="21.5"/>
  <line x1="19" y1="17.5" x2="19" y2="21.5"/>
</g>

</svg>