<svg xmlns="http://www.w3.org/2000/svg" width="24" height="24" viewBox="0 0 24 24" fill="none">
<style>
.s{stroke:#a371f7;stroke-width:1.5;stroke-linecap:round;stroke-linejoin:round;fill:none}
.f{fill:#a371f7}
.fs{fill:#c9a0ff}
@media(prefers-color-scheme:light){
.s{stroke:#6e40c9}
.f{fill:#6e40c9}
.fs{fill:#8250df}
}
</style>

<g class="s">
  <path d="M18 12 C18 16.4, 14.4 20, 10 20 C8 20, 6.2 19.2, 4.8 17.8
    C6 19, 7.8 19.5, 9.8 19.5 C14 19.5, 17.5 15.5, 17.5 11
    C17.5 8.5, 16 6.5, 14.5 5.5 C16.5 7, 18 9.3, 18 12 Z"/>
</g>
<path class="f" style="stroke:none" d="M7.0,3.5 L7.5,5.0 L9.0,5.5 L7.5,6.0 L7.0,7.5 L6.5,6.0 L5.0,5.5 L6.5,5.0 Z" />
<path class="f" style="stroke:none;fill-opacity:0.6" d="M4.0,8.7 L4.4,9.6 L5.3,10.0 L4.4,10.4 L4.0,11.3 L3.6,10.4 L2.7,10.0 L3.6,9.6 Z" />
<path class="f" style="stroke:none;fill-opacity:0.4" d="M9.5,1.5 L9.7,2.3 L10.5,2.5 L9.7,2.7 L9.5,3.5 L9.3,2.7 L8.5,2.5 L9.3,2.3 Z" />

</svg>