<svg xmlns="http://www.w3.org/2000/svg" width="24" height="24" viewBox="0 0 24 24" fill="none">
<style>
.s{stroke:#a371f7;stroke-width:1.5;stroke-linecap:round;stroke-linejoin:round;fill:none}
.f{fill:#a371f7}
.fs{fill:#c9a0ff}
@media(prefers-color-scheme:light){
.s{stroke:#6e40c9}
.f{fill:#6e40c9}
.fs{fill:#8250df}
}
</style>

<g class="s">
  <circle cx="12" cy="5" r="2.5"/>
  <path d="M7.5 14 C7.5 11, 9.5 9, 12 9 C14.5 9, 16.5 11, 16.5 14"/>
  <circle cx="4.5" cy="11" r="2"/>
  <path d="M1 18.5 C1 16.5, 2.5 15, 4.5 15 C5.5 15, 6.5 15.5, 7 16"/>
  <circle cx="19.5" cy="11" r="2"/>
  <path d="M23 18.5 C23 16.5, 21.5 15, 19.5 15 C18.5 15, 17.5 15.5, 17 16"/>
  <line x1="7" y1="12.5" x2="9" y2="10.5" style="stroke-dasharray:1.5 1"/>
  <line x1="17" y1="12.5" x2="15" y2="10.5" style="stroke-dasharray:1.5 1"/>
</g>

</svg>